<mxfile host="app.diagrams.net" modified="2020-12-29T03:38:59.931Z" agent="5.0 (Windows NT 10.0; Win64; x64) AppleWebKit/537.36 (KHTML, like Gecko) Chrome/87.0.4280.88 Safari/537.36" etag="qfQwU_ub5o6q-MCdkhw1" version="14.1.2" type="github">
  <diagram name="Page-1" id="5f0bae14-7c28-e335-631c-24af17079c00">
    <mxGraphModel dx="1056" dy="567" grid="1" gridSize="10" guides="1" tooltips="1" connect="1" arrows="1" fold="1" page="1" pageScale="1" pageWidth="1100" pageHeight="850" background="#ffffff" math="0" shadow="0">
      <root>
        <mxCell id="0" />
        <mxCell id="1" parent="0" />
        <mxCell id="ktNHSlk8oYFNLXSLunyU-14" value="" style="whiteSpace=wrap;html=1;aspect=fixed;" vertex="1" parent="1">
          <mxGeometry x="50" y="10" width="880" height="880" as="geometry" />
        </mxCell>
        <mxCell id="39150e848f15840c-1" value="Device" style="verticalAlign=top;align=left;spacingTop=8;spacingLeft=2;spacingRight=12;shape=cube;size=10;direction=south;fontStyle=4;html=1;rounded=0;shadow=0;comic=0;labelBackgroundColor=none;strokeWidth=1;fontFamily=Verdana;fontSize=12" parent="1" vertex="1">
          <mxGeometry x="70" y="260" width="330" height="220" as="geometry" />
        </mxCell>
        <mxCell id="39150e848f15840c-2" value="Data Source" style="verticalAlign=top;align=left;spacingTop=8;spacingLeft=2;spacingRight=12;shape=cube;size=10;direction=south;fontStyle=4;html=1;rounded=0;shadow=0;comic=0;labelBackgroundColor=none;strokeWidth=1;fontFamily=Verdana;fontSize=12" parent="1" vertex="1">
          <mxGeometry x="570" y="212.5" width="330" height="220" as="geometry" />
        </mxCell>
        <mxCell id="39150e848f15840c-3" value="Server" style="verticalAlign=top;align=left;spacingTop=8;spacingLeft=2;spacingRight=12;shape=cube;size=10;direction=south;fontStyle=4;html=1;rounded=0;shadow=0;comic=0;labelBackgroundColor=none;strokeWidth=1;fontFamily=Verdana;fontSize=12" parent="1" vertex="1">
          <mxGeometry x="320" y="510" width="320" height="250" as="geometry" />
        </mxCell>
        <mxCell id="39150e848f15840c-5" value="Веб-сайт&lt;br&gt;&quot;Интернет-магазин&quot;" style="shape=component;align=center;spacingLeft=36;rounded=0;shadow=0;comic=0;labelBackgroundColor=none;strokeWidth=1;fontFamily=Verdana;fontSize=12;html=1;" parent="1" vertex="1">
          <mxGeometry x="120" y="340" width="160" height="95" as="geometry" />
        </mxCell>
        <mxCell id="39150e848f15840c-7" value="база данных" style="shape=component;align=left;spacingLeft=36;rounded=0;shadow=0;comic=0;labelBackgroundColor=none;strokeWidth=1;fontFamily=Verdana;fontSize=12;html=1;" parent="1" vertex="1">
          <mxGeometry x="710" y="280" width="120" height="60" as="geometry" />
        </mxCell>
        <mxCell id="39150e848f15840c-9" value="JDBC" style="ellipse;whiteSpace=wrap;html=1;rounded=0;shadow=0;comic=0;labelBackgroundColor=none;strokeWidth=1;fontFamily=Verdana;fontSize=12;align=center;" parent="1" vertex="1">
          <mxGeometry x="630" y="355" width="40" height="30" as="geometry" />
        </mxCell>
        <mxCell id="39150e848f15840c-10" value="JavaBeans&lt;br&gt;&lt;div style=&quot;text-align: center&quot;&gt;&lt;span&gt;(model)&lt;/span&gt;&lt;/div&gt;" style="shape=component;align=left;spacingLeft=36;rounded=0;shadow=0;comic=0;labelBackgroundColor=none;strokeWidth=1;fontFamily=Verdana;fontSize=12;html=1;" parent="1" vertex="1">
          <mxGeometry x="430" y="560" width="120" height="60" as="geometry" />
        </mxCell>
        <mxCell id="39150e848f15840c-12" style="edgeStyle=none;rounded=0;html=1;dashed=1;labelBackgroundColor=none;startArrow=none;startFill=0;startSize=8;endArrow=open;endFill=0;endSize=16;fontFamily=Verdana;fontSize=12;" parent="1" source="39150e848f15840c-10" target="39150e848f15840c-9" edge="1">
          <mxGeometry relative="1" as="geometry" />
        </mxCell>
        <mxCell id="39150e848f15840c-13" style="edgeStyle=elbowEdgeStyle;rounded=0;html=1;labelBackgroundColor=none;startArrow=none;startFill=0;startSize=8;endArrow=none;endFill=0;endSize=16;fontFamily=Verdana;fontSize=12;" parent="1" source="39150e848f15840c-9" target="39150e848f15840c-7" edge="1">
          <mxGeometry relative="1" as="geometry" />
        </mxCell>
        <mxCell id="39150e848f15840c-17" style="edgeStyle=orthogonalEdgeStyle;rounded=0;html=1;labelBackgroundColor=none;startArrow=none;startFill=0;startSize=8;endArrow=none;endFill=0;endSize=16;fontFamily=Verdana;fontSize=12;" parent="1" source="39150e848f15840c-3" target="39150e848f15840c-2" edge="1">
          <mxGeometry relative="1" as="geometry">
            <Array as="points">
              <mxPoint x="695" y="660" />
            </Array>
          </mxGeometry>
        </mxCell>
        <mxCell id="ktNHSlk8oYFNLXSLunyU-1" value="HTTP" style="text;html=1;strokeColor=none;fillColor=none;align=center;verticalAlign=middle;whiteSpace=wrap;rounded=0;" vertex="1" parent="1">
          <mxGeometry x="600" y="432.5" width="40" height="20" as="geometry" />
        </mxCell>
        <mxCell id="ktNHSlk8oYFNLXSLunyU-2" value="«контролер»&lt;br&gt;&lt;b&gt;Servlet&lt;/b&gt;" style="html=1;dropTarget=0;" vertex="1" parent="1">
          <mxGeometry x="340" y="670" width="110" height="50" as="geometry" />
        </mxCell>
        <mxCell id="ktNHSlk8oYFNLXSLunyU-3" value="" style="shape=module;jettyWidth=8;jettyHeight=4;" vertex="1" parent="ktNHSlk8oYFNLXSLunyU-2">
          <mxGeometry x="1" width="20" height="20" relative="1" as="geometry">
            <mxPoint x="-27" y="7" as="offset" />
          </mxGeometry>
        </mxCell>
        <mxCell id="ktNHSlk8oYFNLXSLunyU-4" value="«View»&lt;br&gt;&lt;b&gt;JSP&lt;/b&gt;" style="html=1;dropTarget=0;" vertex="1" parent="1">
          <mxGeometry x="510" y="670" width="110" height="50" as="geometry" />
        </mxCell>
        <mxCell id="ktNHSlk8oYFNLXSLunyU-5" value="" style="shape=module;jettyWidth=8;jettyHeight=4;" vertex="1" parent="ktNHSlk8oYFNLXSLunyU-4">
          <mxGeometry x="1" width="20" height="20" relative="1" as="geometry">
            <mxPoint x="-27" y="7" as="offset" />
          </mxGeometry>
        </mxCell>
        <mxCell id="ktNHSlk8oYFNLXSLunyU-6" value="" style="endArrow=classic;html=1;entryX=0;entryY=0.5;entryDx=0;entryDy=0;exitX=1;exitY=0.5;exitDx=0;exitDy=0;" edge="1" parent="1" source="ktNHSlk8oYFNLXSLunyU-2" target="ktNHSlk8oYFNLXSLunyU-4">
          <mxGeometry width="50" height="50" relative="1" as="geometry">
            <mxPoint x="430" y="540" as="sourcePoint" />
            <mxPoint x="480" y="490" as="targetPoint" />
          </mxGeometry>
        </mxCell>
        <mxCell id="ktNHSlk8oYFNLXSLunyU-9" value="" style="endArrow=none;dashed=1;html=1;dashPattern=1 3;strokeWidth=2;" edge="1" parent="1" source="ktNHSlk8oYFNLXSLunyU-2" target="39150e848f15840c-10">
          <mxGeometry width="50" height="50" relative="1" as="geometry">
            <mxPoint x="430" y="630" as="sourcePoint" />
            <mxPoint x="480" y="580" as="targetPoint" />
          </mxGeometry>
        </mxCell>
        <mxCell id="ktNHSlk8oYFNLXSLunyU-10" value="" style="endArrow=classic;startArrow=classic;html=1;" edge="1" parent="1" source="39150e848f15840c-10" target="ktNHSlk8oYFNLXSLunyU-4">
          <mxGeometry width="50" height="50" relative="1" as="geometry">
            <mxPoint x="430" y="630" as="sourcePoint" />
            <mxPoint x="480" y="580" as="targetPoint" />
          </mxGeometry>
        </mxCell>
        <mxCell id="ktNHSlk8oYFNLXSLunyU-11" style="edgeStyle=orthogonalEdgeStyle;rounded=0;html=1;labelBackgroundColor=none;startArrow=none;startFill=0;startSize=8;endArrow=none;endFill=0;endSize=16;fontFamily=Verdana;fontSize=12;" edge="1" parent="1" target="39150e848f15840c-1">
          <mxGeometry relative="1" as="geometry">
            <Array as="points">
              <mxPoint x="190" y="640" />
            </Array>
            <mxPoint x="315" y="640" as="sourcePoint" />
            <mxPoint x="705" y="300" as="targetPoint" />
          </mxGeometry>
        </mxCell>
        <mxCell id="ktNHSlk8oYFNLXSLunyU-12" value="" style="endArrow=classic;startArrow=classic;html=1;" edge="1" parent="1" source="39150e848f15840c-3" target="39150e848f15840c-5">
          <mxGeometry width="50" height="50" relative="1" as="geometry">
            <mxPoint x="430" y="360" as="sourcePoint" />
            <mxPoint x="480" y="310" as="targetPoint" />
          </mxGeometry>
        </mxCell>
        <mxCell id="ktNHSlk8oYFNLXSLunyU-13" value="HTTP" style="text;html=1;strokeColor=none;fillColor=none;align=center;verticalAlign=middle;whiteSpace=wrap;rounded=0;" vertex="1" parent="1">
          <mxGeometry x="280" y="490" width="40" height="20" as="geometry" />
        </mxCell>
      </root>
    </mxGraphModel>
  </diagram>
</mxfile>
